<mxfile host="app.diagrams.net" agent="Mozilla/5.0 (Windows NT 10.0; Win64; x64) AppleWebKit/537.36 (KHTML, like Gecko) Chrome/136.0.0.0 Safari/537.36" version="27.0.5">
  <diagram name="Page-1" id="KpiYwarOaAkSO-xiTwhi">
    <mxGraphModel dx="1426" dy="751" grid="0" gridSize="10" guides="1" tooltips="1" connect="1" arrows="1" fold="1" page="1" pageScale="1" pageWidth="850" pageHeight="1100" math="0" shadow="0">
      <root>
        <mxCell id="0" />
        <mxCell id="1" parent="0" />
        <mxCell id="F6e7hwrJ1lz1xphXKw3a-1" value="" style="ellipse;html=1;shape=startState;fillColor=#000000;strokeColor=#ff0000;" parent="1" vertex="1">
          <mxGeometry x="370" y="20" width="30" height="30" as="geometry" />
        </mxCell>
        <mxCell id="F6e7hwrJ1lz1xphXKw3a-2" value="" style="edgeStyle=orthogonalEdgeStyle;html=1;verticalAlign=bottom;endArrow=open;endSize=8;strokeColor=#ff0000;rounded=0;" parent="1" source="F6e7hwrJ1lz1xphXKw3a-1" edge="1">
          <mxGeometry relative="1" as="geometry">
            <mxPoint x="385" y="110" as="targetPoint" />
          </mxGeometry>
        </mxCell>
        <mxCell id="ejwaWuF_iRQw21t8vhkd-7" style="edgeStyle=orthogonalEdgeStyle;rounded=0;orthogonalLoop=1;jettySize=auto;html=1;" parent="1" source="F6e7hwrJ1lz1xphXKw3a-3" target="ejwaWuF_iRQw21t8vhkd-3" edge="1">
          <mxGeometry relative="1" as="geometry" />
        </mxCell>
        <mxCell id="F6e7hwrJ1lz1xphXKw3a-3" value="1. Client gửi yêu cầu delete task" style="rounded=0;whiteSpace=wrap;html=1;" parent="1" vertex="1">
          <mxGeometry x="280" y="110" width="200" height="50" as="geometry" />
        </mxCell>
        <mxCell id="ejwaWuF_iRQw21t8vhkd-12" value="" style="edgeStyle=orthogonalEdgeStyle;rounded=0;orthogonalLoop=1;jettySize=auto;html=1;" parent="1" source="ejwaWuF_iRQw21t8vhkd-3" target="ejwaWuF_iRQw21t8vhkd-11" edge="1">
          <mxGeometry relative="1" as="geometry" />
        </mxCell>
        <mxCell id="ejwaWuF_iRQw21t8vhkd-3" value="2. Validate request" style="rounded=0;whiteSpace=wrap;html=1;" parent="1" vertex="1">
          <mxGeometry x="280" y="200" width="200" height="50" as="geometry" />
        </mxCell>
        <mxCell id="ejwaWuF_iRQw21t8vhkd-4" value="5. Backend đánh dấu plan vào db là&amp;nbsp; bị xóa ( is_deleted = true)." style="rounded=0;whiteSpace=wrap;html=1;" parent="1" vertex="1">
          <mxGeometry x="282" y="409" width="200" height="50" as="geometry" />
        </mxCell>
        <mxCell id="ejwaWuF_iRQw21t8vhkd-6" value="s" style="ellipse;html=1;shape=endState;fillColor=#000000;strokeColor=#ff0000;" parent="1" vertex="1">
          <mxGeometry x="365" y="646" width="30" height="30" as="geometry" />
        </mxCell>
        <mxCell id="ejwaWuF_iRQw21t8vhkd-13" value="" style="edgeStyle=orthogonalEdgeStyle;rounded=0;orthogonalLoop=1;jettySize=auto;html=1;" parent="1" source="ejwaWuF_iRQw21t8vhkd-11" target="ejwaWuF_iRQw21t8vhkd-4" edge="1">
          <mxGeometry relative="1" as="geometry" />
        </mxCell>
        <mxCell id="ejwaWuF_iRQw21t8vhkd-17" value="yes" style="edgeLabel;html=1;align=center;verticalAlign=middle;resizable=0;points=[];" parent="ejwaWuF_iRQw21t8vhkd-13" vertex="1" connectable="0">
          <mxGeometry x="-0.275" y="4" relative="1" as="geometry">
            <mxPoint as="offset" />
          </mxGeometry>
        </mxCell>
        <mxCell id="ejwaWuF_iRQw21t8vhkd-15" style="edgeStyle=orthogonalEdgeStyle;rounded=0;orthogonalLoop=1;jettySize=auto;html=1;" parent="1" source="ejwaWuF_iRQw21t8vhkd-11" target="ejwaWuF_iRQw21t8vhkd-14" edge="1">
          <mxGeometry relative="1" as="geometry" />
        </mxCell>
        <mxCell id="ejwaWuF_iRQw21t8vhkd-16" value="no" style="edgeLabel;html=1;align=center;verticalAlign=middle;resizable=0;points=[];" parent="ejwaWuF_iRQw21t8vhkd-15" vertex="1" connectable="0">
          <mxGeometry x="-0.1333" relative="1" as="geometry">
            <mxPoint as="offset" />
          </mxGeometry>
        </mxCell>
        <mxCell id="ejwaWuF_iRQw21t8vhkd-11" value="3.Hợp lệ?" style="rhombus;whiteSpace=wrap;html=1;" parent="1" vertex="1">
          <mxGeometry x="340" y="284" width="80" height="80" as="geometry" />
        </mxCell>
        <mxCell id="ejwaWuF_iRQw21t8vhkd-18" style="edgeStyle=orthogonalEdgeStyle;rounded=0;orthogonalLoop=1;jettySize=auto;html=1;entryX=1;entryY=0.5;entryDx=0;entryDy=0;" parent="1" source="ejwaWuF_iRQw21t8vhkd-14" target="ejwaWuF_iRQw21t8vhkd-6" edge="1">
          <mxGeometry relative="1" as="geometry">
            <Array as="points">
              <mxPoint x="612" y="661" />
            </Array>
          </mxGeometry>
        </mxCell>
        <mxCell id="ejwaWuF_iRQw21t8vhkd-14" value="4.Trả về lỗi" style="rounded=0;whiteSpace=wrap;html=1;" parent="1" vertex="1">
          <mxGeometry x="516" y="299" width="200" height="50" as="geometry" />
        </mxCell>
        <mxCell id="ejwaWuF_iRQw21t8vhkd-27" value="" style="endArrow=classic;html=1;rounded=0;exitX=0.5;exitY=1;exitDx=0;exitDy=0;entryX=0.5;entryY=0;entryDx=0;entryDy=0;" parent="1" source="ejwaWuF_iRQw21t8vhkd-4" edge="1">
          <mxGeometry width="50" height="50" relative="1" as="geometry">
            <mxPoint x="128" y="541" as="sourcePoint" />
            <mxPoint x="382" y="477" as="targetPoint" />
          </mxGeometry>
        </mxCell>
        <mxCell id="ejwaWuF_iRQw21t8vhkd-31" style="edgeStyle=orthogonalEdgeStyle;rounded=0;orthogonalLoop=1;jettySize=auto;html=1;" parent="1" source="ejwaWuF_iRQw21t8vhkd-30" edge="1">
          <mxGeometry relative="1" as="geometry">
            <mxPoint x="610" y="524" as="targetPoint" />
          </mxGeometry>
        </mxCell>
        <mxCell id="ejwaWuF_iRQw21t8vhkd-32" value="no" style="edgeLabel;html=1;align=center;verticalAlign=middle;resizable=0;points=[];" parent="ejwaWuF_iRQw21t8vhkd-31" vertex="1" connectable="0">
          <mxGeometry x="-0.1748" y="3" relative="1" as="geometry">
            <mxPoint as="offset" />
          </mxGeometry>
        </mxCell>
        <mxCell id="ejwaWuF_iRQw21t8vhkd-34" style="edgeStyle=orthogonalEdgeStyle;rounded=0;orthogonalLoop=1;jettySize=auto;html=1;entryX=1;entryY=0.5;entryDx=0;entryDy=0;" parent="1" source="ejwaWuF_iRQw21t8vhkd-30" target="ejwaWuF_iRQw21t8vhkd-33" edge="1">
          <mxGeometry relative="1" as="geometry" />
        </mxCell>
        <mxCell id="ejwaWuF_iRQw21t8vhkd-30" value="6. Plan đang chạy trong scheduler" style="rhombus;whiteSpace=wrap;html=1;" parent="1" vertex="1">
          <mxGeometry x="328" y="480" width="108" height="88" as="geometry" />
        </mxCell>
        <mxCell id="ejwaWuF_iRQw21t8vhkd-36" style="edgeStyle=orthogonalEdgeStyle;rounded=0;orthogonalLoop=1;jettySize=auto;html=1;entryX=0;entryY=0.5;entryDx=0;entryDy=0;" parent="1" source="ejwaWuF_iRQw21t8vhkd-33" target="ejwaWuF_iRQw21t8vhkd-6" edge="1">
          <mxGeometry relative="1" as="geometry">
            <Array as="points">
              <mxPoint x="186" y="661" />
            </Array>
          </mxGeometry>
        </mxCell>
        <mxCell id="ejwaWuF_iRQw21t8vhkd-33" value="7. Xóa task đó khỏi scheduler" style="rounded=0;whiteSpace=wrap;html=1;" parent="1" vertex="1">
          <mxGeometry x="82" y="499" width="200" height="50" as="geometry" />
        </mxCell>
      </root>
    </mxGraphModel>
  </diagram>
</mxfile>
